<svg xmlns="http://www.w3.org/2000/svg" viewBox="0 0 500 500"><defs><style>.cls-1,.cls-3{fill:#fff;}.cls-2{fill:#3e4357;}.cls-3{stroke:#fff;stroke-miterlimit:10;stroke-width:1.07px;}</style></defs><title>instagram</title><g id="BACKGROUND"><rect class="cls-1" width="500" height="500"/></g><g id="OBJECTS"><ellipse class="cls-2" cx="250" cy="249.45" rx="246.89" ry="241.16"/><path class="cls-3" d="M190.21,348.44ZM309.79,141.6Z"/><path class="cls-1" d="M250,322.31c41.14,0,74.61-32.67,74.61-72.84S291.14,176.58,250,176.58s-74.61,32.7-74.61,72.89S208.86,322.31,250,322.31Zm-56.51-72.84c0-30.46,25.35-55.24,56.51-55.24s56.51,24.78,56.51,55.24-25.35,55.2-56.51,55.2S193.49,279.91,193.49,249.47Z"/><path class="cls-1" d="M324.41,370.49H175.6C147.67,370.49,125,348.3,125,321V177.88c0-27.28,22.72-49.47,50.65-49.47H324.41c27.92,0,50.64,22.19,50.64,49.47V321C375.05,348.3,352.33,370.49,324.41,370.49Zm-148.81-224c-17.74,0-32.18,14.1-32.18,31.42V321c0,17.32,14.44,31.42,32.18,31.42H324.41c17.73,0,32.17-14.1,32.17-31.42V177.88c0-17.32-14.44-31.42-32.17-31.42Z"/></g></svg>