<svg xmlns="http://www.w3.org/2000/svg" viewBox="0 0 500 500"><defs><style>.cls-1{fill:#fff;}.cls-2{fill:#3e4357;}</style></defs><title>wasap</title><g id="BACKGROUND"><rect class="cls-1" width="500" height="500"/></g><g id="OBJECTS"><circle class="cls-2" cx="250" cy="247.5" r="247.5"/><path class="cls-1" d="M397.28,239.87c-2-78.35-65.41-139.73-144.39-139.73-77.55,0-140.93,60.19-144.28,137-.1,2.1-.17,4.21-.17,6.33a142.2,142.2,0,0,0,19.69,72.3,2.06,2.06,0,0,1,.18,1.73L102.73,393.1a1.32,1.32,0,0,0,1.65,1.69l78.71-25a2.09,2.09,0,0,1,1.61.14,145.58,145.58,0,0,0,68.19,17c79.65,0,144.46-64.32,144.46-143.39C397.35,242.45,397.28,239.87,397.28,239.87Zm-241.89,68.2a114.66,114.66,0,0,1-19.78-64.58c0-3.71.19-7.4.56-11.28,5.83-59.92,56-105.11,116.72-105.11,60.86,0,112.21,47.13,116.91,107.29.27,3.54.4,6.43.4,9.09,0,64.18-52.63,116.39-117.31,116.39a117.34,117.34,0,0,1-49.55-10.93c-4.31-2-12.48-6.89-15.06-8.45a2,2,0,0,0-1.72-.19l-39.62,12.6a1.16,1.16,0,0,1-1.45-1.48l12.8-37.73a2.12,2.12,0,0,0-.29-1.92C157.22,310.68,155.94,308.89,155.39,308.07Z"/><path class="cls-1" d="M321.57,275.39c-.9-1.44-7.13-4.43-7.13-4.43-2.46-1.22-20.55-10.09-23.95-11.31-2.91-1-6.21-2.22-9.16,2.17-2.25,3.33-8.82,11-11,13.42-1.5,1.71-2.88,2.27-6.21.6-.55-.27-16.67-7.16-27.78-17a102.2,102.2,0,0,1-19.17-23.69c-1.53-2.58-.53-3.78,1.35-5.66,1.16-1.14,6.26-7.31,6.67-7.9.81-1.24,2.26-4.21,2.26-4.21a7.52,7.52,0,0,0-.26-7.1c-.59-1.15-9.87-23.49-10.75-25.59-2.64-6.31-5.47-6.64-8.17-6.49-1.31.1-13.58.19-17.5,4.44l-.69.72c-3.83,4.07-11.82,12.51-11.82,28.86a44.19,44.19,0,0,0,1.84,12.1,78.82,78.82,0,0,0,12.64,24.39c.13.16,9.11,12.64,13.6,17.81,14.2,16.35,30.25,28.43,46.43,34.76,20.69,8.08,29.52,9.93,34.53,9.93,2.19,0,6.81-1.12,7.81-1.21,6.32-.57,21.34-8.39,24.49-17.18C322.63,284.52,322.69,277.26,321.57,275.39Z"/></g></svg>