<?xml version="1.0" encoding="UTF-8"?>
<svg id="Capa_2" data-name="Capa 2" xmlns="http://www.w3.org/2000/svg" viewBox="0 0 35.62 35.63">
  <defs>
    <style>
      .cls-1 {
        fill: #333;
      }
    </style>
  </defs>
  <g id="Capa_2-2" data-name="Capa 2">
    <g id="ELEMENTS">
      <g>
        <path class="cls-1" d="m27.24,6.36c-1.15,0-2.09.94-2.09,2.09s.94,2.09,2.09,2.09,2.09-.94,2.09-2.09-.94-2.09-2.09-2.09Z"/>
        <path class="cls-1" d="m17.96,9.04c-4.84,0-8.77,3.94-8.77,8.77s3.94,8.77,8.77,8.77,8.77-3.94,8.77-8.77-3.94-8.77-8.77-8.77Zm0,14.39c-3.1,0-5.62-2.52-5.62-5.62s2.52-5.62,5.62-5.62,5.62,2.52,5.62,5.62-2.52,5.62-5.62,5.62Z"/>
        <path class="cls-1" d="m24.92,35.63h-14.22c-5.9,0-10.7-4.8-10.7-10.7v-14.22C0,4.8,4.8,0,10.7,0h14.22c5.9,0,10.7,4.8,10.7,10.7v14.22c0,5.9-4.8,10.7-10.7,10.7h0ZM10.7,3.35c-4.05,0-7.35,3.3-7.35,7.35v14.22c0,4.05,3.3,7.35,7.35,7.35h14.22c4.05,0,7.35-3.3,7.35-7.35v-14.22c0-4.05-3.3-7.35-7.35-7.35h-14.22Z"/>
      </g>
    </g>
  </g>
</svg>