<?xml version="1.0" encoding="UTF-8"?>
<svg id="Capa_2" data-name="Capa 2" xmlns="http://www.w3.org/2000/svg" viewBox="0 0 28.04 36.58">
  <defs>
    <style>
      .cls-1 {
        fill: #333;
      }
    </style>
  </defs>
  <g id="Capa_2-2" data-name="Capa 2">
    <g id="ELEMENTS">
      <g>
        <path class="cls-1" d="m14.02,0C6.29,0,0,6.29,0,14.02c0,7.27,11.48,19.83,12.79,21.24l1.23,1.32,1.23-1.32c1.31-1.41,12.79-13.98,12.79-21.24C28.04,6.29,21.75,0,14.02,0Zm0,31.61c-3.82-4.36-10.66-13.09-10.66-17.59,0-5.88,4.78-10.66,10.66-10.66s10.66,4.78,10.66,10.66c0,4.5-6.84,13.23-10.66,17.59Z"/>
        <path class="cls-1" d="m14.02,6.86c-3.62,0-6.57,2.95-6.57,6.57s2.95,6.57,6.57,6.57,6.57-2.95,6.57-6.57-2.95-6.57-6.57-6.57Zm0,9.78c-1.77,0-3.21-1.44-3.21-3.21s1.44-3.21,3.21-3.21,3.21,1.44,3.21,3.21-1.44,3.21-3.21,3.21Z"/>
      </g>
    </g>
  </g>
</svg>